<?xml version="1.0" encoding="UTF-8" standalone="no" ?>
<!DOCTYPE svg PUBLIC "-//W3C//DTD SVG 1.1//EN" "http://www.w3.org/Graphics/SVG/1.1/DTD/svg11.dtd">
<svg xmlns="http://www.w3.org/2000/svg" xmlns:xlink="http://www.w3.org/1999/xlink" version="1.1" width="640" height="480" viewBox="0 0 640 480" xml:space="preserve">
<desc>Created with Fabric.js 3.6.6</desc>
<defs>
</defs>
<rect x="0" y="0" width="100%" height="100%" fill="rgba(86, 85, 85, 0)"></rect>
<g transform="matrix(13.18 0 0 13.18 320.16 240.07)"  >
<path style="stroke: none; stroke-width: 1; stroke-dasharray: none; stroke-linecap: butt; stroke-dashoffset: 0; stroke-linejoin: miter; stroke-miterlimit: 4; fill: rgb(7,150,211); fill-rule: nonzero; opacity: 1;"  transform=" translate(-16.55, -18.03)" d="M 8.91875 3.36409 L 12.7995 17.7749 V 1.93135 C 13.1072 1.8599 13.4183 1.79698 13.7323 1.74285 V 17.7764 L 18.0972 1.56789 C 18.4117 1.59622 18.7237 1.63329 19.033 1.67886 L 14.6329 18.0179 L 23.3791 2.94491 C 23.664 3.07245 23.9447 3.20777 24.2208 3.35058 L 15.442 18.4798 L 27.9748 6.00969 C 28.2008 6.2223 28.4207 6.44116 28.6344 6.666 L 16.0997 19.138 L 31.3068 10.4021 C 31.4503 10.6768 31.5863 10.9561 31.7144 11.2396 L 16.5694 19.9399 L 32.9861 15.563 C 33.0319 15.8707 33.0691 16.1812 33.0976 16.4942 L 16.8078 20.8371 L 32.9215 20.8371 C 32.8671 21.1496 32.8038 21.4591 32.732 21.7653 L 16.8053 21.7653 L 31.2914 25.6274 C 31.1426 25.9108 30.9858 26.1894 30.8213 26.4629 L 16.568 22.6629 L 28.4728 29.5017 C 28.2474 29.7323 28.0153 29.9564 27.7768 30.1736 L 16.1027 23.4672 L 24.9363 32.2567 C 24.6569 32.4191 24.3723 32.5737 24.0828 32.72 L 15.4421 24.1226 L 21.1036 33.8794 C 20.7936 33.9666 20.4799 34.0451 20.1629 34.1145 L 14.6335 24.5852 L 17.2994 34.4849 C 17.0618 34.4949 16.8229 34.5 16.5828 34.5 C 16.5008 34.5 16.419 34.4994 16.3373 34.4982 L 13.7323 24.8247 V 34.2572 C 13.4182 34.203 13.1072 34.1401 12.7995 34.0687 V 24.8262 L 10.5026 33.3556 C 10.2096 33.2407 9.9207 33.1177 9.63617 32.9869 L 11.8982 24.5873 L 7.65195 31.9052 C 7.38907 31.7376 7.13125 31.563 6.87878 31.3814 L 11.0916 24.121 L 5.19183 29.9913 C 4.96586 29.7787 4.74589 29.5599 4.53222 29.3351 L 10.4301 23.4666 L 3.1354 27.6572 C 2.95287 27.406 2.77728 27.1495 2.6089 26.8879 L 9.96701 22.661 L 1.52099 24.9128 C 1.38952 24.6297 1.26589 24.3422 1.15035 24.0507 L 9.72261 21.7653 L 0.433603 21.7653 C 0.361777 21.4591 0.298519 21.1496 0.244094 20.8371 L 9.7201 20.8371 L 0.00168521 18.2461 C 0.000481746 18.1642 -0.00012207 18.0822 -0.00012207 18 C -0.00012207 17.7617 0.00495418 17.5246 0.0150049 17.2888 L 9.96566 19.9417 L 0.38703 14.4392 C 0.456776 14.1237 0.535596 13.8116 0.623205 13.5031 L 10.4331 19.1386 L 1.78883 10.5375 C 1.93589 10.2495 2.0912 9.96628 2.25445 9.68826 L 11.0917 18.4813 L 4.34895 6.86092 C 4.56728 6.62365 4.7925 6.39275 5.02428 6.16853 L 11.8987 18.0159 L 8.07899 3.83174 C 8.35385 3.66806 8.63387 3.51208 8.91875 3.36409 Z" stroke-linecap="round" />
</g>
</svg>